<?xml version="1.0" standalone="no"?><!DOCTYPE svg PUBLIC "-//W3C//DTD SVG 1.1//EN" "http://www.w3.org/Graphics/SVG/1.1/DTD/svg11.dtd"><svg class="icon" height="512" viewBox="0 0 1024 1024" version="1.1" xmlns="http://www.w3.org/2000/svg"><path d="M576.944128 295.52469c-16.8559-17.158798-40.637536-28.309766-67.38983-28.309766-26.753317 0-50.531883 11.151991-67.113537 28.490891L170.22187 580.39881c-14.199397 15.357779-23.255657 35.18843-23.255657 57.164954 0 47.191812 40.599673 85.46858 90.64651 85.46858 26.753317 0 50.531883-11.132548 67.10842-28.509311l114.186645-119.134331 0 357.576955c0 47.215348 40.600697 85.457324 90.647533 85.457324 50.043766 0 90.645486-38.234813 90.645486-85.457324L600.200808 575.388702l113.902166 119.369691c16.861016 17.152658 40.641629 28.28009 67.393923 28.28009 50.043766 0 90.645486-38.276768 90.645486-85.469604 0-21.98164-9.060353-41.812291-23.532973-56.964386L576.944128 295.52469 576.944128 295.52469 576.944128 295.52469zM814.614156 7.066953 206.828602 7.066953c-50.046836 0-90.647533 38.258349-90.647533 85.456301 0 47.205115 40.59865 85.487 90.647533 85.487l607.785553 0c50.040696 0 90.64651-38.282908 90.64651-85.487C905.259642 45.325301 864.654852 7.066953 814.614156 7.066953L814.614156 7.066953 814.614156 7.066953z" /></svg>